<?xml version="1.0" encoding="utf-8"?>
<!-- Generator: Adobe Illustrator 16.0.3, SVG Export Plug-In . SVG Version: 6.00 Build 0)  -->
<!DOCTYPE svg PUBLIC "-//W3C//DTD SVG 1.1//EN" "http://www.w3.org/Graphics/SVG/1.1/DTD/svg11.dtd">
<svg version="1.1" id="Layer_1" xmlns="http://www.w3.org/2000/svg" xmlns:xlink="http://www.w3.org/1999/xlink" x="0px" y="0px"
	 width="512px" height="512px" viewBox="0 0 512 512" enable-background="new 0 0 512 512" xml:space="preserve">
<g id="XMLID_112_">
	<path id="XMLID_98_" fill-rule="evenodd" clip-rule="evenodd" fill="#404041" d="M323.58,332.658
		c-23.365-11.398-130.098-65.914-136.491-74.855c-6.346-8.471-5.034-13.128-4.41-15.89c0.707-1.419-0.936-4.005-1.696-4.403
		c-7.224-3.807-52.33-27.041-61.522-31.777c-0.342,0.551-0.711,1.141-1.103,1.759l44.501,30.193c0,0,0.611,0.404,0.423,1.021
		l-48.43-25.717l-1.141,1.771l44.607,30.434c0,0,0.529,0.349,0.451,0.9l-48.565-25.927l-1.133,1.74l44.776,30.72
		c0,0,0.585,0.385,0.386,0.997l-48.71-26.291l-1.148,1.75c9.941,7.005,49.354,34.775,55.868,39.287
		c0.333,0.225,3.023,1.182,4.136-0.301c1.528-1.295,5.064-3.506,10.671-4.1c1.817-0.07,3.821,0.041,6.021,0.416
		c10.91,1.543,108.626,70.9,129.536,86.316c3.799,2.803,9.66,4.92,16.174,4.193c3.045-0.059,6.299-0.744,9.569-2.271
		C335.875,342.369,329.378,335.496,323.58,332.658z"/>
	<path id="XMLID_97_" fill-rule="evenodd" clip-rule="evenodd" fill="#404041" d="M402.207,215.115
		c-11.277-14.818-40.077-9.708-59.26,3.073c-28.972,19.298-24.139,32.658-31.226,45.667c-6.508,8.855-98.553,55.701-122.042,66.791
		c-5.107,2.402-10.827,7.881-12.567,16.135c-0.54,1.754-0.892,3.646-1.006,5.68c1.855,0.834,3.698,1.395,5.502,1.723
		c8.131,2.262,15.627-0.291,20.112-3.715c20.667-15.736,104.67-75.826,115.526-77.52c14.812-0.293,24.441,10.154,54.92-6.66
		C392.35,255.154,410.158,231.953,402.207,215.115z"/>
	<g id="XMLID_93_">
		<path id="XMLID_95_" fill-rule="evenodd" clip-rule="evenodd" fill="#404041" d="M172.93,216.579l-1.375-93.501
			c-25.316-9.088-42.739-28.084-42.739-50.049c0-30.795,34.242-55.758,76.48-55.758c16.284,0,31.375,3.713,43.778,10.037
			c12.402-6.324,27.494-10.037,43.776-10.037c42.24,0,76.479,24.963,76.479,55.758c0,21.965-17.422,40.96-42.738,50.049
			c-0.457,31.167-0.917,62.333-1.374,93.501C273.424,229.964,222.764,228.64,172.93,216.579z"/>
		<path id="XMLID_94_" fill-rule="evenodd" clip-rule="evenodd" fill="#E2E4E4" d="M217.563,118.949
			c-1.289,0.031-16.558,2.346-25.741,3.754l0.866,90.612h-10.479l-0.877-91.569c-60.668-23.065-48.318-84.261,7.378-96.205
			c-16.026,8.742-36.92,25.951-36.92,44.837C151.789,122.911,218.521,118.928,217.563,118.949z"/>
	</g>
	<g id="XMLID_57_">
		<path id="XMLID_92_" fill-rule="evenodd" clip-rule="evenodd" fill="#404041" d="M424.041,450.021
			c8.61,10.994,13.323,20.6,19.149,33.393c-22.745-12.658-45.753-24.283-69.898-31.357c7.705-1.928,15.462-3.637,23.267-5.098
			l5.139-0.961l5.042-0.945v-0.77v-1.975v-23.727c15.787,6.641,30.622,14.238,44.633,22.654
			C440.692,442.666,432.76,444.666,424.041,450.021z"/>
		<path id="XMLID_91_" fill-rule="evenodd" clip-rule="evenodd" fill="#404041" d="M74.105,450.23
			c-8.609,10.994-13.323,20.604-19.15,33.396c22.599-12.578,45.454-24.135,69.426-31.221l-28.212-6.133l-4.85-1.057v-0.729v-1.99
			V418.83c-15.754,6.635-30.559,14.217-44.545,22.619C57.456,442.873,65.387,444.875,74.105,450.23z"/>
		<g id="XMLID_67_">
			<path id="XMLID_90_" fill-rule="evenodd" clip-rule="evenodd" fill="#404041" d="M366.509,450.219
				c9.909-2.631,19.722-4.859,29.408-6.672c-9.648-4.012-19.424-7.605-29.298-10.793
				C366.561,439.576,366.512,445.959,366.509,450.219z"/>
			<path id="XMLID_68_" fill-rule="evenodd" clip-rule="evenodd" fill="#404041" d="M131.639,450.432l-29.958-6.516
				c9.828-4.113,19.786-7.791,29.846-11.051C131.586,439.727,131.635,446.15,131.639,450.432z"/>
		</g>
		<path id="XMLID_66_" fill-rule="evenodd" clip-rule="evenodd" fill="#404041" d="M402.883,442.309
			c-98.126-42.566-209.619-42.502-307.709,0.189c0-15.26,0-30.518,0-45.777c98.09-42.695,209.583-42.758,307.709-0.191
			C402.883,411.787,402.883,427.051,402.883,442.309z"/>
		<path id="XMLID_133_" fill-rule="evenodd" clip-rule="evenodd" fill="none" d="M399.599,479.449
			c-98.129-42.566-209.621-42.504-307.711,0.188c0-15.26,0-30.52,0-45.777c98.09-42.695,209.582-42.758,307.711-0.191
			C399.599,448.928,399.599,464.189,399.599,479.449z"/>
		<text id="XMLID_100_" transform="matrix(0.9675 -0.2529 0.2529 0.9675 135.3735 417.7178)"><tspan x="0" y="0" fill="#F1F1F1" font-family="'spinweradBold'" font-size="37.4833">R</tspan><tspan x="26.322" y="0.051" fill="#F1F1F1" font-family="'spinweradBold'" font-size="37.4833" rotate="3.608">E</tspan><tspan x="48.656" y="1.507" fill="#F1F1F1" font-family="'spinweradBold'" font-size="37.4833" rotate="6.617">S</tspan><tspan x="66.718" y="3.548" fill="#F1F1F1" font-family="'spinweradBold'" font-size="37.4833" rotate="9.57">T</tspan><tspan x="88.01" y="7.072" fill="#F1F1F1" font-family="'spinweradBold'" font-size="37.4833" rotate="13.04">A</tspan><tspan x="112.59" y="12.738" fill="#F1F1F1" font-family="'spinweradBold'" font-size="37.4833" rotate="16.833">U</tspan><tspan x="137.427" y="20.232" fill="#F1F1F1" font-family="'spinweradBold'" font-size="37.4833" rotate="20.706">R</tspan><tspan x="162.054" y="29.545" fill="#F1F1F1" font-family="'spinweradBold'" font-size="37.4833" rotate="24.53">A</tspan><tspan x="184.992" y="40.011" fill="#F1F1F1" font-family="'spinweradBold'" font-size="37.4833" rotate="28.217">N</tspan><tspan x="206.598" y="51.641" fill="#F1F1F1" font-family="'spinweradBold'" font-size="37.4833" rotate="31.642">T</tspan></text>
	</g>
	<g id="XMLID_56_">
		<g id="XMLID_210_">
			<path id="XMLID_211_" fill="#404041" d="M112.996,137.57c0.167,1.846-0.458,4.223-1.706,6.75
				c-0.579,1.323-1.33,2.674-2.265,3.999c-0.468,0.663-0.983,1.317-1.545,1.962c-0.519,0.697-1.084,1.382-1.703,2.055
				c-1.224,1.353-2.569,2.465-3.859,3.483c-1.251,1.055-2.54,1.922-3.809,2.607c-2.583,1.332-4.903,2.097-6.716,1.945
				c-0.736-1.646-0.859-4.244,0.063-7.143c0.436-1.464,1.081-3.036,1.939-4.642c0.899-1.574,2.115-3.103,3.491-4.618
				c0.693-0.751,1.404-1.451,2.121-2.091c0.77-0.598,1.544-1.141,2.314-1.628c1.538-0.974,3.055-1.729,4.475-2.264
				C108.746,137.021,111.336,136.986,112.996,137.57z"/>
		</g>
		<g id="XMLID_202_">
			<path id="XMLID_209_" fill="#404041" d="M71.696,205.061c0,0,0.048-0.187,0.136-0.539c0.08-0.354,0.228-0.862,0.438-1.506
				c0.406-1.288,0.985-3.131,1.679-5.342c0.63-2.233,1.684-4.728,2.681-7.445c0.951-2.74,2.3-5.522,3.537-8.351
				c2.563-5.622,5.585-11.015,8.033-14.942c1.139-2.018,2.334-3.54,3.075-4.668c0.768-1.11,1.206-1.745,1.206-1.745l-1.636-1.166
				c0,0-0.445,0.645-1.226,1.772c-0.753,1.147-1.967,2.695-3.125,4.743c-2.487,3.988-5.554,9.463-8.152,15.163
				c-1.255,2.867-2.621,5.689-3.585,8.464c-1.012,2.754-2.078,5.283-2.716,7.544c-0.705,2.24-1.291,4.105-1.702,5.413
				c-0.212,0.649-0.362,1.166-0.443,1.525c-0.091,0.355-0.139,0.545-0.139,0.545L71.696,205.061z"/>
			<g id="XMLID_206_">
				<path id="XMLID_208_" fill="#404041" d="M109.345,174.356c-1.297-1.269-3.51-2.484-6.352-3.223s-6.363-1.014-10.01-0.206
					c-3.682,0.775-6.96,2.286-9.167,4.185c-2.246,1.874-3.82,3.903-4.058,5.725c1.407,1.133,3.836,1.858,6.776,2.057
					c2.946,0.202,6.53-0.033,10.077-0.901c3.498-0.906,6.514-2.072,8.656-3.439C107.362,177.139,108.845,175.737,109.345,174.356z"
					/>
				<path id="XMLID_207_" fill="#404041" d="M71.95,148.503c1.728,0.646,3.542,2.439,5.099,5.036
					c1.556,2.597,2.829,5.965,3.75,9.911c0.873,3.927,0.976,7.462,0.799,10.486c-0.214,3.004-1.125,5.294-2.197,6.733
					c-3.504-0.707-8.674-5.464-10.69-13.44c-1.109-4.02-0.963-7.928-0.289-11.255C69.033,152.618,70.477,149.988,71.95,148.503z"/>
			</g>
			<g id="XMLID_203_">
				<path id="XMLID_205_" fill="#404041" d="M58.009,173.319c1.809,0.333,3.925,1.755,5.937,4.015
					c2.055,2.274,3.832,5.305,5.446,9.024c1.597,3.712,2.164,7.16,2.479,10.167c0.276,2.993,0.612,5.442-1.173,6.992v0.003
					c-3.57-0.145-9.208-3.988-12.642-11.485C54.703,184.578,55.605,176.646,58.009,173.319z"/>
				<path id="XMLID_204_" fill="#404041" d="M99.453,192.003c-1.5-1.027-3.901-1.81-6.833-2.003
					c-2.89-0.174-6.496,0.169-9.935,1.619c-3.449,1.437-6.747,3.466-8.622,5.699c-1.915,2.219-3.365,4.513-3.365,6.308v0.004
					c3.57,1.778,10.404,1.311,17.12-1.633C94.622,199.077,98.862,194.956,99.453,192.003z"/>
			</g>
		</g>
		<g id="XMLID_194_">
			<path id="XMLID_201_" fill="#404041" d="M66.018,252.895c0,0-0.025-0.772-0.069-2.123c-0.02-0.676-0.044-1.495-0.071-2.437
				c0.023-0.941,0.05-2.004,0.079-3.162c0.031-4.637,0.425-10.811,1.168-16.946c0.736-6.139,1.929-12.209,2.937-16.732
				c1.141-4.492,1.901-7.486,1.901-7.486l-1.933-0.549c0,0-0.77,3.033-1.925,7.582c-1.021,4.58-2.229,10.726-2.974,16.941
				c-0.752,6.21-1.15,12.461-1.184,17.155c-0.029,1.173-0.056,2.249-0.08,3.202c0.027,0.952,0.052,1.783,0.072,2.466
				c0.044,1.371,0.069,2.151,0.069,2.151L66.018,252.895z"/>
			<g id="XMLID_198_">
				<path id="XMLID_200_" fill="#404041" d="M92.502,211.434c-3.296-1.557-9.963-1.563-16.658,2.291
					c-3.213,1.956-5.697,4.464-7.367,6.927c-1.594,2.477-2.234,4.924-2.037,6.712c3.357,1.301,10.156-0.217,16.338-4.169
					c3.205-1.957,5.585-4.136,7.149-6.215C91.632,214.937,92.496,212.98,92.502,211.434z"/>
				<path id="XMLID_199_" fill="#404041" d="M48.626,199.532c3.668,0.088,9.272,4.284,13.273,11.045
					c2.127,3.411,3.492,6.753,4.104,9.65c0.688,2.909,0.76,5.405,0.046,7.087c-3.563,0.399-9.839-2.564-14.386-9.437
					c-2.153-3.41-3.396-7.096-3.895-10.387C47.414,204.226,47.776,201.358,48.626,199.532z"/>
			</g>
			<g id="XMLID_195_">
				<path id="XMLID_197_" fill="#404041" d="M43.377,226.815c1.844-0.226,4.254,0.474,6.869,2.004
					c2.636,1.53,5.454,3.878,7.982,6.925c2.455,3.044,4.406,6.15,5.492,8.923c0.547,1.388,1.168,2.695,1.321,3.877
					c0.215,1.182,0.303,2.238,0.303,3.122v0.003c-1.785,0.467-4.535,0.198-7.341-0.947c-1.399-0.574-3.027-1.368-4.485-2.402
					c-1.423-1.032-2.91-2.306-4.256-3.833C43.742,238.373,42.255,230.661,43.377,226.815z"/>
				<path id="XMLID_196_" fill="#404041" d="M88.541,231.999c-1.721-0.525-4.286-0.535-7.13,0.185
					c-2.82,0.722-5.949,2.179-8.923,4.59c-3.042,2.404-5.023,5.257-6.258,7.945c-0.612,1.344-0.948,2.644-1.147,3.826
					c-0.138,1.18,0.262,2.242,0.262,3.111v0.003c1.784,0.389,4.18-0.044,6.911-1.18c1.371-0.568,2.738-1.312,4.177-2.212
					c1.472-0.903,2.927-1.962,4.34-3.171C86.297,240.264,89.015,235.072,88.541,231.999z"/>
			</g>
		</g>
		<g id="XMLID_186_">
			<path id="XMLID_193_" fill="#404041" d="M75.074,300.15c0,0-0.26-0.729-0.715-2.002c-0.411-1.285-1.208-3.053-1.785-5.301
				c-0.634-2.229-1.374-4.826-2.166-7.611c-0.615-2.83-1.272-5.85-1.927-8.865c-0.473-3.055-0.945-6.107-1.388-8.969
				c-0.321-2.878-0.526-5.574-0.751-7.881c-0.27-2.305-0.211-4.242-0.29-5.589c-0.044-1.353-0.069-2.125-0.069-2.125l-2.009,0.05
				c0,0,0.025,0.781,0.07,2.149c0.079,1.367,0.022,3.329,0.293,5.663c0.227,2.336,0.437,5.067,0.762,7.982
				c0.449,2.9,0.928,5.992,1.406,9.086c0.665,3.061,1.33,6.117,1.953,8.986c0.803,2.824,1.552,5.457,2.195,7.715
				c0.587,2.277,1.394,4.072,1.809,5.379c0.462,1.289,0.726,2.025,0.726,2.025L75.074,300.15z"/>
			<g id="XMLID_190_">
				<path id="XMLID_192_" fill="#404041" d="M87.765,252.818c-1.798-0.26-4.299,0.112-7.021,1.247
					c-2.717,1.134-5.716,3.049-8.183,5.867c-1.258,1.41-2.31,2.898-3.16,4.395c-0.867,1.496-1.5,2.992-1.839,4.404
					c-0.741,2.834-0.711,5.377,0.006,7.025c3.563,0.232,9.673-3.287,14.405-8.873c1.152-1.393,2.176-2.789,3.049-4.145
					c0.851-1.354,1.5-2.658,1.958-3.879C87.833,256.428,88.191,254.296,87.765,252.818z"/>
				<path id="XMLID_191_" fill="#404041" d="M42.332,254.449c1.772-0.498,4.297-0.167,7.094,0.955
					c2.8,1.123,5.813,3.033,8.883,5.662c1.508,1.316,2.822,2.672,3.932,4.023c1.095,1.352,2.019,2.693,2.833,3.977
					c1.567,2.564,2.29,4.938,2.105,6.758c-3.305,1.461-10.098,0.518-16.488-4.719c-1.625-1.301-2.966-2.748-4.057-4.244
					c-1.112-1.498-2.022-3.045-2.73-4.551C42.424,259.299,42.036,256.447,42.332,254.449z"/>
			</g>
			<g id="XMLID_187_">
				<path id="XMLID_189_" fill="#404041" d="M45.474,282.193c3.324-1.551,10.592-0.236,17.195,4.055
					c6.803,4.256,9.813,9.537,11.599,13.121v0.004c-1.785,0.99-4.345,1.531-7.362,1.318c-2.968-0.227-6.875-1.158-10.29-3.285
					c-3.453-2.105-6.419-4.863-8.252-7.641C46.582,286.977,45.53,284.219,45.474,282.193z"/>
				<path id="XMLID_188_" fill="#404041" d="M90.092,273.479c-3.647,0.068-9.442,2.979-13.718,9.387
					c-4.08,6.346-3.891,13.43-2.106,16.367v0.004c1.785-0.184,3.845-1.383,6.092-3.322c2.294-1.955,4.304-4.559,6.349-7.738
					c2.004-3.166,3.024-6.107,3.591-8.656C90.918,276.961,90.775,274.852,90.092,273.479z"/>
			</g>
		</g>
		<g id="XMLID_178_">
			<path id="XMLID_185_" fill="#404041" d="M99.236,341.682c0,0-0.496-0.594-1.362-1.629c-0.839-1.059-2.182-2.457-3.479-4.379
				c-1.353-1.883-2.93-4.074-4.62-6.42c-1.519-2.467-3.139-5.094-4.76-7.723c-1.536-2.674-2.884-5.457-4.247-8.012
				c-1.349-2.559-2.29-5.104-3.259-7.205c-0.462-1.061-0.887-2.033-1.263-2.898c-0.318-0.885-0.595-1.654-0.824-2.289
				c-0.455-1.273-0.716-2.002-0.716-2.002l-1.889,0.684c0,0,0.263,0.736,0.725,2.025c0.232,0.645,0.513,1.426,0.837,2.326
				c0.381,0.875,0.811,1.861,1.28,2.938c0.982,2.131,1.939,4.711,3.306,7.309c1.381,2.59,2.75,5.412,4.309,8.129
				c1.645,2.664,3.289,5.33,4.829,7.83c1.715,2.385,3.315,4.609,4.688,6.516c1.318,1.949,2.677,3.371,3.528,4.445
				c0.879,1.049,1.382,1.652,1.382,1.652L99.236,341.682z"/>
			<g id="XMLID_182_">
				<path id="XMLID_184_" fill="#404041" d="M95.668,293.193c-3.498,0.637-9.224,4.594-12.144,11.514
					c-3.172,7.025-1.991,13.906,0.396,16.563c3.442-0.959,8.028-6.307,10.734-13.102c1.265-3.355,2.068-6.535,2.179-9.107
					c0.059-1.291-0.038-2.436-0.269-3.41C96.362,294.664,96.098,293.813,95.668,293.193z"/>
				<path id="XMLID_183_" fill="#404041" d="M53.091,309.127c3.109-2.113,9.832-1.82,17.302,1.23
					c7.22,3.176,12.387,7.516,13.185,11.107c-2.632,2.471-9.361,3.85-17.106,0.924c-3.948-1.422-7.008-3.779-9.32-6.219
					c-1.153-1.225-2.101-2.473-2.816-3.664C53.649,311.303,53.27,310.135,53.091,309.127z"/>
			</g>
			<g id="XMLID_179_">
				<path id="XMLID_181_" fill="#404041" d="M65.251,334.672c2.614-2.578,9.575-3.596,17.223-1.74
					c7.891,1.707,13.371,5.352,15.038,8.543l0.002,0.004c-1.07,1.443-3.214,2.801-6.127,3.629
					c-2.888,0.809-6.685,1.189-10.628,0.332c-3.975-0.822-7.618-2.469-10.315-4.482C67.822,338.896,65.986,336.584,65.251,334.672z"
					/>
				<path id="XMLID_180_" fill="#404041" d="M104.437,311.623c-3.411,1.283-8.104,5.986-10.014,13.457
					c-1.68,7.301,0.325,14.146,3.395,16.145l0.001,0.004c1.62-0.785,3.313-2.682,4.762-5.262c1.475-2.604,2.579-5.783,3.438-9.457
					c0.82-3.641,0.848-6.76,0.523-9.309C106.295,314.602,105.523,312.674,104.437,311.623z"/>
			</g>
		</g>
		<g id="XMLID_167_">
			<path id="XMLID_177_" fill="#404041" d="M135.916,372.824c0,0-0.659-0.408-1.784-1.158c-1.13-0.744-2.743-1.807-4.68-3.078
				c-0.968-0.639-2.017-1.326-3.126-2.057c-1.08-0.771-2.172-1.648-3.327-2.521c-1.149-0.883-2.338-1.791-3.544-2.715
				c-1.214-0.918-2.445-1.852-3.569-2.912c-2.303-2.061-4.605-4.115-6.764-6.045c-2.016-2.076-3.897-4.02-5.509-5.678
				c-1.662-1.621-2.832-3.162-3.712-4.184c-0.867-1.037-1.362-1.629-1.362-1.629l-1.545,1.283c0,0,0.502,0.6,1.382,1.652
				c0.893,1.039,2.081,2.6,3.765,4.242c1.636,1.684,3.544,3.654,5.588,5.76c2.188,1.955,4.523,4.041,6.857,6.129
				c1.142,1.072,2.387,2.021,3.617,2.949c1.222,0.938,2.426,1.861,3.591,2.754c1.17,0.885,2.277,1.775,3.371,2.555
				c1.123,0.74,2.185,1.438,3.165,2.082c1.96,1.289,3.594,2.363,4.738,3.117c1.142,0.756,1.803,1.168,1.803,1.168L135.916,372.824z"
				/>
			<g id="XMLID_171_">
				<path id="XMLID_173_" fill="#404041" d="M116.22,328.105c-1.562,0.92-3.299,2.758-4.741,5.334
					c-0.72,1.291-1.366,2.766-1.874,4.404c-0.496,1.627-0.774,3.354-0.884,5.242c-0.177,3.734,0.395,7.318,1.595,9.99
					c1.228,2.646,2.87,4.586,4.477,5.398c2.916-2.072,5.42-8.646,5.56-15.904c0.083-3.646-0.233-6.926-1.054-9.344
					c-0.381-1.234-0.926-2.227-1.414-3.119C117.394,329.223,116.828,328.545,116.22,328.105z"/>
				<path id="XMLID_172_" fill="#404041" d="M81.642,357.619c1.075-1.498,3.263-2.799,6.156-3.643
					c1.445-0.422,3.065-0.729,4.807-0.895c1.755-0.18,3.708-0.287,5.708-0.195c4.04,0.146,7.455,1.004,10.281,2.018
					c2.854,0.986,4.927,2.354,5.942,3.869c-1.638,3.215-7.512,6.787-15.832,6.771c-4.134-0.029-7.803-1.217-10.849-2.674
					c-1.495-0.758-2.87-1.553-3.889-2.482C82.942,359.461,82.151,358.516,81.642,357.619z"/>
			</g>
			<g id="XMLID_168_">
				<path id="XMLID_170_" fill="#404041" d="M101.674,377.477c0.824-1.68,2.723-3.283,5.453-4.643
					c2.736-1.371,6.259-2.447,10.207-2.91c1.973-0.229,3.846-0.283,5.579-0.195c1.743,0.074,3.431,0.178,4.895,0.469
					c2.951,0.553,5.196,1.605,6.424,2.961h0.002c-1.121,3.438-6.36,7.854-14.484,9.127c-2.019,0.303-4.042,0.432-5.902,0.271
					c-1.847-0.188-3.595-0.563-5.18-1.057C105.507,380.49,102.962,379.057,101.674,377.477z"/>
				<path id="XMLID_169_" fill="#404041" d="M130.776,342.549c-1.372,1.15-2.811,3.303-3.762,6.053
					c-0.941,2.742-1.434,6.146-1.034,9.936c0.198,1.896,0.593,3.691,1.127,5.338c0.543,1.635,1.312,3,2.108,4.242
					c1.613,2.453,3.521,4.131,5.223,4.701l0.003,0.006c2.551-2.498,4.016-9.4,2.996-16.686c-0.247-1.834-0.675-3.447-1.119-4.979
					c-0.425-1.551-0.948-2.922-1.536-4.09C133.622,344.717,132.133,343.221,130.776,342.549z"/>
			</g>
		</g>
	</g>
	<g id="XMLID_101_">
		<g id="XMLID_163_">
			<path id="XMLID_164_" fill="#404041" d="M399.002,137.57c-0.167,1.846,0.457,4.223,1.706,6.75
				c0.581,1.323,1.332,2.674,2.266,3.999c0.469,0.663,0.983,1.317,1.548,1.962c0.517,0.697,1.084,1.382,1.701,2.055
				c1.224,1.353,2.57,2.465,3.859,3.483c1.252,1.055,2.538,1.922,3.809,2.607c2.582,1.332,4.902,2.097,6.716,1.945
				c0.735-1.646,0.857-4.244-0.063-7.143c-0.436-1.464-1.081-3.036-1.94-4.642c-0.897-1.574-2.113-3.103-3.491-4.618
				c-0.691-0.751-1.403-1.451-2.12-2.091c-0.77-0.598-1.543-1.141-2.314-1.628c-1.537-0.974-3.053-1.729-4.477-2.264
				C403.252,137.021,400.662,136.986,399.002,137.57z"/>
		</g>
		<g id="XMLID_155_">
			<path id="XMLID_162_" fill="#404041" d="M440.304,205.061c0,0-0.049-0.187-0.138-0.539c-0.079-0.354-0.229-0.862-0.438-1.506
				c-0.404-1.288-0.985-3.131-1.681-5.342c-0.627-2.233-1.682-4.728-2.681-7.445c-0.949-2.74-2.297-5.522-3.534-8.351
				c-2.563-5.622-5.585-11.015-8.035-14.942c-1.138-2.018-2.334-3.54-3.075-4.668c-0.767-1.11-1.206-1.745-1.206-1.745l1.638-1.166
				c0,0,0.446,0.645,1.225,1.772c0.754,1.147,1.967,2.695,3.125,4.743c2.486,3.988,5.555,9.463,8.151,15.163
				c1.255,2.867,2.621,5.689,3.584,8.464c1.014,2.754,2.078,5.283,2.718,7.544c0.702,2.24,1.29,4.105,1.699,5.413
				c0.213,0.649,0.364,1.166,0.444,1.525c0.091,0.355,0.138,0.545,0.138,0.545L440.304,205.061z"/>
			<g id="XMLID_159_">
				<path id="XMLID_161_" fill="#404041" d="M402.654,174.356c1.296-1.269,3.509-2.484,6.352-3.223
					c2.844-0.739,6.363-1.014,10.01-0.206c3.683,0.775,6.96,2.286,9.166,4.185c2.245,1.874,3.821,3.903,4.058,5.725
					c-1.406,1.133-3.835,1.858-6.776,2.057c-2.944,0.202-6.529-0.033-10.075-0.901c-3.496-0.906-6.516-2.072-8.656-3.439
					C404.636,177.139,403.154,175.737,402.654,174.356z"/>
				<path id="XMLID_160_" fill="#404041" d="M440.049,148.503c-1.728,0.646-3.542,2.439-5.1,5.036
					c-1.556,2.597-2.828,5.965-3.748,9.911c-0.875,3.927-0.977,7.462-0.8,10.486c0.214,3.004,1.124,5.294,2.197,6.733
					c3.504-0.707,8.674-5.464,10.689-13.44c1.108-4.02,0.962-7.928,0.289-11.255C442.967,152.618,441.524,149.988,440.049,148.503z"
					/>
			</g>
			<g id="XMLID_156_">
				<path id="XMLID_158_" fill="#404041" d="M453.99,173.319c-1.81,0.333-3.926,1.755-5.937,4.015
					c-2.054,2.274-3.832,5.305-5.446,9.024c-1.596,3.712-1.833,7.16-2.15,10.167c-0.275,2.993-0.28,5.442,1.504,6.992v0.003
					c3.57-0.145,8.878-3.988,12.312-11.485C457.627,184.578,456.394,176.646,453.99,173.319z"/>
				<path id="XMLID_157_" fill="#404041" d="M412.546,192.003c1.501-1.027,3.901-1.81,6.834-2.003
					c2.89-0.174,6.494,0.169,9.936,1.619c3.447,1.437,7.076,3.466,8.952,5.699c1.914,2.219,3.693,4.513,3.693,6.308v0.004
					c-3.569,1.778-10.733,1.311-17.45-1.633C417.706,199.077,413.136,194.956,412.546,192.003z"/>
			</g>
		</g>
		<g id="XMLID_130_">
			<path id="XMLID_154_" fill="#404041" d="M445.98,252.895c0,0,0.026-0.772,0.069-2.123c0.021-0.676,0.044-1.495,0.072-2.437
				c-0.024-0.941-0.051-2.004-0.08-3.162c-0.031-4.637-0.426-10.811-1.168-16.946c-0.736-6.139-1.93-12.209-2.937-16.732
				c-1.143-4.492-1.902-7.486-1.902-7.486l1.934-0.549c0,0,0.77,3.033,1.925,7.582c1.021,4.58,2.229,10.726,2.975,16.941
				c0.753,6.21,1.15,12.461,1.182,17.155c0.032,1.173,0.056,2.249,0.081,3.202c-0.028,0.952-0.054,1.783-0.072,2.466
				c-0.043,1.371-0.069,2.151-0.069,2.151L445.98,252.895z"/>
			<g id="XMLID_151_">
				<path id="XMLID_153_" fill="#404041" d="M419.498,211.434c3.294-1.557,9.962-1.563,16.657,2.291
					c3.212,1.956,5.696,4.464,7.366,6.927c1.594,2.477,2.234,4.924,2.035,6.712c-3.356,1.301-10.155-0.217-16.336-4.169
					c-3.207-1.957-5.588-4.136-7.15-6.215C420.366,214.937,419.503,212.98,419.498,211.434z"/>
				<path id="XMLID_152_" fill="#404041" d="M463.373,199.532c-3.669,0.088-9.272,4.284-13.273,11.045
					c-2.127,3.411-3.491,6.753-4.104,9.65c-0.69,2.909-0.76,5.405-0.047,7.087c3.563,0.399,9.84-2.564,14.386-9.437
					c2.153-3.41,3.397-7.096,3.894-10.387C464.585,204.226,464.222,201.358,463.373,199.532z"/>
			</g>
			<g id="XMLID_131_">
				<path id="XMLID_150_" fill="#404041" d="M468.622,226.815c-1.845-0.226-4.254,0.474-6.868,2.004
					c-2.638,1.53-5.456,3.878-7.983,6.925c-2.454,3.044-4.407,6.15-5.49,8.923c-0.548,1.388-0.839,2.695-0.992,3.877
					c-0.215,1.182,0.027,2.238,0.027,3.122v0.003c1.785,0.467,4.204,0.198,7.014-0.947c1.396-0.574,2.861-1.368,4.319-2.402
					c1.422-1.032,2.826-2.306,4.172-3.833C468.34,238.373,469.744,230.661,468.622,226.815z"/>
				<path id="XMLID_149_" fill="#404041" d="M423.458,231.999c1.723-0.525,4.284-0.535,7.13,0.185
					c2.819,0.722,5.949,2.179,8.925,4.59c3.041,2.404,5.021,5.257,6.257,7.945c0.611,1.344,1.278,2.644,1.479,3.826
					c0.136,1.18,0.067,2.242,0.067,3.111v0.003c-1.784,0.389-4.51-0.044-7.241-1.18c-1.371-0.568-2.902-1.312-4.342-2.212
					c-1.471-0.903-3.009-1.962-4.423-3.171C425.784,240.264,422.984,235.072,423.458,231.999z"/>
			</g>
		</g>
		<g id="XMLID_122_">
			<path id="XMLID_129_" fill="#404041" d="M436.926,300.15c0,0,0.261-0.729,0.714-2.002c0.412-1.285,1.21-3.053,1.785-5.301
				c0.635-2.229,1.374-4.826,2.165-7.611c0.617-2.83,1.272-5.85,1.929-8.865c0.472-3.055,0.944-6.107,1.387-8.969
				c0.32-2.878,0.526-5.574,0.751-7.881c0.271-2.305,0.211-4.242,0.291-5.589c0.044-1.353,0.069-2.125,0.069-2.125l2.009,0.05
				c0,0-0.025,0.781-0.069,2.149c-0.081,1.367-0.025,3.329-0.297,5.663c-0.227,2.336-0.437,5.067-0.76,7.982
				c-0.449,2.9-0.927,5.992-1.404,9.086c-0.667,3.061-1.332,6.117-1.956,8.986c-0.803,2.824-1.552,5.457-2.193,7.715
				c-0.588,2.277-1.395,4.072-1.81,5.379c-0.462,1.289-0.725,2.025-0.725,2.025L436.926,300.15z"/>
			<g id="XMLID_126_">
				<path id="XMLID_128_" fill="#404041" d="M424.236,252.818c1.797-0.26,4.298,0.112,7.02,1.247
					c2.716,1.134,5.715,3.049,8.183,5.867c1.259,1.41,2.309,2.898,3.159,4.395c0.867,1.496,1.501,2.992,1.84,4.404
					c0.739,2.834,0.711,5.377-0.007,7.025c-3.563,0.232-9.674-3.287-14.404-8.873c-1.152-1.393-2.177-2.789-3.051-4.145
					c-0.851-1.354-1.499-2.658-1.956-3.879C424.166,256.428,423.808,254.296,424.236,252.818z"/>
				<path id="XMLID_127_" fill="#404041" d="M469.667,254.449c-1.773-0.498-4.298-0.167-7.094,0.955
					c-2.8,1.123-5.813,3.033-8.883,5.662c-1.51,1.316-2.82,2.672-3.933,4.023c-1.095,1.352-2.019,2.693-2.833,3.977
					c-1.566,2.564-2.29,4.938-2.104,6.758c3.305,1.461,10.097,0.518,16.487-4.719c1.625-1.301,2.967-2.748,4.056-4.244
					c1.114-1.498,2.024-3.045,2.732-4.551C469.573,259.299,469.964,256.447,469.667,254.449z"/>
			</g>
			<g id="XMLID_123_">
				<path id="XMLID_125_" fill="#404041" d="M466.526,282.193c-3.326-1.551-10.264-0.236-16.866,4.055
					c-6.806,4.256-9.483,9.537-11.269,13.121v0.004c1.785,0.99,4.014,1.531,7.031,1.318c2.968-0.227,6.709-1.158,10.126-3.285
					c3.451-2.105,6.336-4.863,8.167-7.641C465.5,286.977,466.471,284.219,466.526,282.193z"/>
				<path id="XMLID_124_" fill="#404041" d="M421.906,273.479c3.647,0.068,9.772,2.979,14.05,9.387
					c4.079,6.346,4.221,13.43,2.436,16.367v0.004c-1.785-0.184-4.175-1.383-6.423-3.322c-2.293-1.955-4.468-4.559-6.513-7.738
					c-2.005-3.166-3.106-6.107-3.674-8.656C421.164,276.961,421.224,274.852,421.906,273.479z"/>
			</g>
		</g>
		<g id="XMLID_111_">
			<path id="XMLID_121_" fill="#404041" d="M412.763,341.682c0,0,0.495-0.594,1.363-1.629c0.838-1.059,2.18-2.457,3.478-4.379
				c1.353-1.883,2.93-4.074,4.621-6.42c1.519-2.467,3.138-5.094,4.758-7.723c1.538-2.674,2.885-5.457,4.248-8.012
				c1.348-2.559,2.289-5.104,3.259-7.205c0.463-1.061,0.887-2.033,1.263-2.898c0.319-0.885,0.596-1.654,0.824-2.289
				c0.455-1.273,0.716-2.002,0.716-2.002l1.889,0.684c0,0-0.264,0.736-0.726,2.025c-0.231,0.645-0.512,1.426-0.836,2.326
				c-0.38,0.875-0.813,1.861-1.279,2.938c-0.983,2.131-1.938,4.711-3.308,7.309c-1.381,2.59-2.748,5.412-4.308,8.129
				c-1.645,2.664-3.287,5.33-4.83,7.83c-1.714,2.385-3.315,4.609-4.686,6.516c-1.317,1.949-2.678,3.371-3.527,4.445
				c-0.881,1.049-1.386,1.652-1.386,1.652L412.763,341.682z"/>
			<g id="XMLID_118_">
				<path id="XMLID_120_" fill="#404041" d="M416.329,293.193c3.5,0.637,9.225,4.594,12.146,11.514
					c3.173,7.025,1.991,13.906-0.396,16.563c-3.441-0.959-8.029-6.307-10.735-13.102c-1.265-3.355-2.066-6.535-2.179-9.107
					c-0.059-1.291,0.038-2.436,0.269-3.41C415.636,294.664,415.9,293.813,416.329,293.193z"/>
				<path id="XMLID_119_" fill="#404041" d="M458.908,309.127c-3.108-2.113-9.833-1.82-17.302,1.23
					c-7.223,3.176-12.389,7.516-13.184,11.107c2.632,2.471,9.36,3.85,17.103,0.924c3.95-1.422,7.011-3.779,9.322-6.219
					c1.152-1.225,2.101-2.473,2.815-3.664C458.35,311.303,458.729,310.135,458.908,309.127z"/>
			</g>
			<g id="XMLID_115_">
				<path id="XMLID_117_" fill="#404041" d="M446.75,334.672c-2.617-2.578-9.577-3.596-17.227-1.74
					c-7.888,1.707-13.369,5.352-15.037,8.543l-0.001,0.004c1.07,1.443,3.214,2.801,6.129,3.629
					c2.886,0.809,6.682,1.189,10.626,0.332c3.976-0.822,7.618-2.469,10.315-4.482C444.177,338.896,446.014,336.584,446.75,334.672z"
					/>
				<path id="XMLID_116_" fill="#404041" d="M407.563,311.623c3.411,1.283,8.104,5.986,10.014,13.457
					c1.681,7.301-0.324,14.146-3.396,16.145l-0.001,0.004c-1.619-0.785-3.313-2.682-4.76-5.262c-1.477-2.604-2.58-5.783-3.441-9.457
					c-0.819-3.641-0.848-6.76-0.522-9.309C405.703,314.602,406.476,312.674,407.563,311.623z"/>
			</g>
		</g>
		<g id="XMLID_102_">
			<path id="XMLID_110_" fill="#404041" d="M376.085,372.824c0,0,0.657-0.408,1.783-1.158c1.13-0.744,2.741-1.807,4.679-3.078
				c0.968-0.639,2.016-1.326,3.127-2.057c1.078-0.771,2.17-1.648,3.326-2.521c1.147-0.883,2.337-1.791,3.543-2.715
				c1.215-0.918,2.444-1.852,3.569-2.912c2.304-2.061,4.606-4.115,6.765-6.045c2.016-2.076,3.896-4.02,5.511-5.678
				c1.66-1.621,2.831-3.162,3.711-4.184c0.866-1.037,1.361-1.629,1.361-1.629l1.544,1.283c0,0-0.502,0.6-1.38,1.652
				c-0.895,1.039-2.082,2.6-3.766,4.242c-1.637,1.684-3.545,3.654-5.588,5.76c-2.189,1.955-4.523,4.041-6.857,6.129
				c-1.143,1.072-2.388,2.021-3.619,2.949c-1.222,0.938-2.425,1.861-3.59,2.754c-1.17,0.885-2.277,1.775-3.371,2.555
				c-1.123,0.74-2.185,1.438-3.166,2.082c-1.959,1.289-3.594,2.363-4.738,3.117c-1.14,0.756-1.802,1.168-1.802,1.168
				L376.085,372.824z"/>
			<g id="XMLID_106_">
				<path id="XMLID_109_" fill="#404041" d="M395.778,328.105c1.563,0.92,3.301,2.758,4.74,5.334
					c0.722,1.291,1.367,2.766,1.876,4.404c0.493,1.627,0.772,3.354,0.883,5.242c0.178,3.734-0.395,7.318-1.596,9.99
					c-1.229,2.646-2.87,4.586-4.478,5.398c-2.915-2.072-5.42-8.646-5.558-15.904c-0.083-3.646,0.232-6.926,1.054-9.344
					c0.38-1.234,0.925-2.227,1.412-3.119C394.607,329.223,395.172,328.545,395.778,328.105z"/>
				<path id="XMLID_107_" fill="#404041" d="M430.357,357.619c-1.077-1.498-3.263-2.799-6.157-3.643
					c-1.444-0.422-3.063-0.729-4.807-0.895c-1.754-0.18-3.709-0.287-5.706-0.195c-4.042,0.146-7.456,1.004-10.281,2.018
					c-2.855,0.986-4.928,2.354-5.944,3.869c1.639,3.215,7.513,6.787,15.834,6.771c4.131-0.029,7.802-1.217,10.848-2.674
					c1.495-0.758,2.87-1.553,3.889-2.482C429.057,359.461,429.849,358.516,430.357,357.619z"/>
			</g>
			<g id="XMLID_103_">
				<path id="XMLID_105_" fill="#404041" d="M410.326,377.477c-0.827-1.68-2.724-3.283-5.452-4.643
					c-2.736-1.371-6.262-2.447-10.208-2.91c-1.973-0.229-3.847-0.283-5.579-0.195c-1.742,0.074-3.429,0.178-4.895,0.469
					c-2.949,0.553-5.197,1.605-6.424,2.961h-0.003c1.12,3.438,6.36,7.854,14.484,9.127c2.019,0.303,4.041,0.432,5.902,0.271
					c1.846-0.188,3.594-0.563,5.18-1.057C406.491,380.49,409.036,379.057,410.326,377.477z"/>
				<path id="XMLID_104_" fill="#404041" d="M381.224,342.549c1.37,1.15,2.81,3.303,3.762,6.053c0.94,2.742,1.433,6.146,1.035,9.936
					c-0.2,1.896-0.597,3.691-1.13,5.338c-0.542,1.635-1.311,3-2.105,4.242c-1.614,2.453-3.521,4.131-5.225,4.701l-0.003,0.006
					c-2.551-2.498-4.017-9.4-2.997-16.686c0.248-1.834,0.677-3.447,1.119-4.979c0.426-1.551,0.949-2.922,1.537-4.09
					C378.377,344.717,379.865,343.221,381.224,342.549z"/>
			</g>
		</g>
	</g>
</g>
</svg>
