<?xml version="1.0" encoding="utf-8"?>
<!-- Generator: Adobe Illustrator 16.0.3, SVG Export Plug-In . SVG Version: 6.00 Build 0)  -->
<!DOCTYPE svg PUBLIC "-//W3C//DTD SVG 1.1//EN" "http://www.w3.org/Graphics/SVG/1.1/DTD/svg11.dtd">
<svg version="1.1" id="Layer_1" xmlns="http://www.w3.org/2000/svg" xmlns:xlink="http://www.w3.org/1999/xlink" x="0px" y="0px"
	 width="512px" height="512px" viewBox="0 0 512 512" enable-background="new 0 0 512 512" xml:space="preserve">
<g id="XMLID_96_">
	<path id="XMLID_40_" fill-rule="evenodd" clip-rule="evenodd" fill="#404041" d="M259.591,10.431
		c-33.604-0.682-53.586,51.647-52.693,93.242c1.348,62.816,26.377,68.389,39.332,91.779c2.545,6.542,1.962,34.017-0.106,68.833
		c3.232-0.921,6.46-1.877,9.674-2.811l6.861-2c-0.509-32.405,0.107-57.52,2.774-63.634c13.894-22.842,39.13-27.397,43.025-90.105
		C311.038,64.211,293.194,11.113,259.591,10.431L259.591,10.431z M237.263,375.269c-2.89,30.552-5.7,56.862-7.449,70.757
		c-1.288,10.106,1.518,24.121,12.411,34.766c2.148,2.52,4.69,4.888,7.675,7.028c3.067-2.018,5.704-4.282,7.952-6.712
		c11.316-10.193,14.689-24.084,13.812-34.231c-1.29-15.224-3.243-45.251-5.015-79.445c-2.521,0.683-5.049,1.343-7.576,1.951
		c-6.118,1.474-12.22,3.216-18.28,4.903L237.263,375.269z"/>
	<path id="XMLID_39_" fill-rule="evenodd" clip-rule="evenodd" fill="#404041" d="M163.77,287.148
		c-18.731-51.715-34.044-97.626-33.069-106.517c1.659-19.031,8.978-26.743,13.14-29.706c1.236-0.849,3.746-3.772,2.387-6.771
		c-4.629-12.45-30.975-81.352-41.144-107.949l-4.415,1.49l21.652,86.716c0,0,0.335,1.279-0.66,1.882L90.333,41.185l-4.482,1.513
		l21.324,86.347c0,0,0.291,1.106-0.476,1.754L75.741,46.11l-4.532,1.531l21.007,86.02c0,0,0.323,1.225-0.683,1.806l-30.5-84.39
		l-4.666,1.575c7.048,30.51,22.57,97.645,25.503,109.884c0.758,3.038,4.697,4.557,5.927,4.569
		c3.612,0.099,11.029,1.383,19.287,7.331c2.528,2.093,5.087,4.653,7.597,7.808c5.851,6.939,19.019,54.642,32.516,108.808
		C152.736,289.82,158.26,288.514,163.77,287.148z"/>
	<path id="XMLID_38_" fill-rule="evenodd" clip-rule="evenodd" fill="#404041" d="M224.191,445.592
		c-4.625-11.346-13.362-33.506-23.703-60.389c-9.703,2.481-19.441,4.837-29.222,6.991c6.291,27.507,11.297,50.247,13.758,62.052
		c1.739,8.343,7.073,18.245,16.708,25.112c4.169,3.58,9.371,6.574,15.607,8.461C229.048,473.451,228.574,456.39,224.191,445.592z"/>
	<path id="XMLID_35_" fill-rule="evenodd" clip-rule="evenodd" fill="#404041" d="M435.239,60.279
		c6.975,34.187-11.154,117.593-42.198,169.888c-12.719,1.415-25.36,3.521-37.478,5.857c-1.389,0.269-2.775,0.542-4.162,0.819
		c21.105-84.555,53.461-169.774,57.115-184.645C413.266,32.561,431.043,39.947,435.239,60.279L435.239,60.279z M344.489,346.445
		c-11.959,42.482-23.498,88.029-28.251,109.92c-2.47,11.168-11.555,25.158-28.984,30.325c-0.047-0.014-0.03-0.068-0.072-0.104
		c-1.133,0.454-2.305,0.868-3.463,1.232c-11.432-14.256-10.735-30.905-6.338-41.422c5.24-12.555,18.722-47.809,34.57-91.711
		C322.746,351.761,333.591,348.979,344.489,346.445z"/>
	<g id="XMLID_32_">
		<path id="XMLID_34_" fill-rule="evenodd" clip-rule="evenodd" fill="#404041" d="M66.372,286.535
			c19.542-12.029,45.284-18.871,73.903-15.789c-35.656-16.54-100.737-16.112-119.684-1.387l1.038,4.626
			c0.991,4.413,2.844,8.409,5.788,11.856c12.657,14.825,42.304,15.865,68.784,13.352C87.51,293.593,77.476,289.198,66.372,286.535z"
			/>
		<path id="XMLID_33_" fill-rule="evenodd" clip-rule="evenodd" fill="#404041" d="M445.04,351.812
			c-19.517,12.031-45.323,18.851-73.948,15.764c35.826,16.589,101.184,16.109,119.897,1.25l-1.129-4.06
			c-1.405-5.073-3.784-9.627-7.323-13.535c-14.282-15.773-44.507-17.633-72.198-15.443
			C420.068,342.992,431.78,348.621,445.04,351.812z"/>
	</g>
	<path id="XMLID_31_" fill-rule="evenodd" clip-rule="evenodd" fill="#404041" d="M495.605,363.171
		c-19.931-71.805-195.196-9.507-237.842,0.779c-41.791,10.066-222.496,71.492-239.579-1.249c0.444-29.342-0.697-58.164-2.37-87.408
		c14.935,66.587,185.332,6.324,222.16-3.001c42.933-10.89,243.655-81.287,257.631,1.187
		C495.605,303.352,495.605,333.271,495.605,363.171z"/>
	<path id="XMLID_30_" fill-rule="evenodd" clip-rule="evenodd" fill="#FFFFFF" d="M340.438,352.077
		c-11.088,39.688-21.577,81.214-26.001,101.573c-2.278,10.33-10.421,23.149-25.873,28.616c10.754-6.381,16.665-16.646,18.555-25.201
		c4.476-20.604,15.167-62.891,26.4-103.012L340.438,352.077z"/>
	<path id="XMLID_29_" fill-rule="evenodd" clip-rule="evenodd" fill="#FFFFFF" d="M431.885,65.16
		c5.101,33.677-15.376,111.534-41.536,164.298c-1.912,0.212-4.022,0.293-5.928,0.537c27.313-58.28,67.355-184.667,28.624-181.448
		C419.823,40.136,428.542,48.966,431.885,65.16z"/>
	<path id="XMLID_28_" fill-rule="evenodd" clip-rule="evenodd" fill="#FFFFFF" d="M252.13,483.406
		c8.922-5.504,15.127-15.689,16.532-26.247c2.392-17.949-4.486-52.209-4.444-84.376c-1.563,0.633-3.129,1.243-4.696,1.807
		l0.847-0.312c0.656,14.543,6.309,60.759,4.975,80.249C263.994,474.225,255.398,479.107,252.13,483.406z"/>
	<path id="XMLID_27_" fill-rule="evenodd" clip-rule="evenodd" fill="#FFFFFF" d="M256.752,15.483
		c30.636,10.257,40.366,54.57,38.315,92.578c-3.342,61.996-22.984,60.444-34.907,83.028c-2.28,6.024-4.574,35.77-4.145,67.651
		l4.532-1.621c-0.327-29.878,1.011-57.636,3.193-63.397c4.147-15.188,30.933-21.256,37.524-71.314
		C305.313,91.639,297.482,14.506,256.752,15.483z"/>
	<path id="XMLID_26_" fill-rule="evenodd" clip-rule="evenodd" fill="#FFFFFF" d="M143.786,143.799
		c0.3,0.419-2.778,2.528-10.253,14.611c-7.476,12.081-5.38,28.337-3.981,32.848l29.476,95.023c0,0-3.646,1.201-3.646,1.074
		s-30.752-93.778-31.153-104.123c-0.447-11.549,2.432-20.755,5.843-27.65c2.838-5.739,6.045-9.88,8.007-12.445L102.801,38.954
		l1.42-0.504C108.146,48.954,143.486,143.38,143.786,143.799z"/>
	<path id="XMLID_25_" fill-rule="evenodd" clip-rule="evenodd" fill="#FFFFFF" d="M215.541,482.905
		c7.217-6.092,10.279-16.539,8.434-26.963c-2.676-15.115-15.741-41.269-25.643-68.127l-3.01,0.889
		c7.924,19.382,20.875,49.969,24.525,64.937C224.563,472.982,217.48,478.445,215.541,482.905z"/>
	<path id="XMLID_4_" fill-rule="evenodd" clip-rule="evenodd" fill="none" d="M496.505,433.413
		c-19.93-71.806-195.194-9.509-237.84,0.778c-41.792,10.068-222.497,71.493-239.579-1.247c0.444-29.346-0.698-58.165-2.372-87.412
		c14.935,66.587,185.332,6.326,222.161-2.997c42.933-10.893,243.653-81.289,257.629,1.184
		C496.505,373.594,496.505,403.511,496.505,433.413z"/>
	<text id="XMLID_1_" transform="matrix(0.9997 -0.023 0.023 0.9997 67.5527 376.7061)"><tspan x="0" y="0" fill="#FFFFFF" stroke="#231F20" stroke-miterlimit="10" font-family="'Bebas'" font-size="48.4641">R</tspan><tspan x="28.256" y="-0.3" fill="#FFFFFF" stroke="#231F20" stroke-miterlimit="10" font-family="'Bebas'" font-size="48.4641" rotate="-5.99">E</tspan><tspan x="53.212" y="-3.007" fill="#FFFFFF" stroke="#231F20" stroke-miterlimit="10" font-family="'Bebas'" font-size="48.4641" rotate="-9.468">S</tspan><tspan x="77.631" y="-7.124" fill="#FFFFFF" stroke="#231F20" stroke-miterlimit="10" font-family="'Bebas'" font-size="48.4641" rotate="-11.87">T</tspan><tspan x="101.389" y="-12.104" fill="#FFFFFF" stroke="#231F20" stroke-miterlimit="10" font-family="'Bebas'" font-size="48.4641" rotate="-13.728">A</tspan><tspan x="130.014" y="-19.132" fill="#FFFFFF" stroke="#231F20" stroke-miterlimit="10" font-family="'Bebas'" font-size="48.4641" rotate="-14.956">U</tspan><tspan x="160.024" y="-27.352" fill="#FFFFFF" stroke="#231F20" stroke-miterlimit="10" font-family="'Bebas'" font-size="48.4641" rotate="-13.354">R</tspan><tspan x="185.669" y="-33.66" fill="#FFFFFF" stroke="#231F20" stroke-miterlimit="10" font-family="'Bebas'" font-size="48.4641" rotate="-14.89">A</tspan><tspan x="214.194" y="-41.299" fill="#FFFFFF" stroke="#231F20" stroke-miterlimit="10" font-family="'Bebas'" font-size="48.4641" rotate="-13.905">N</tspan><tspan x="244.925" y="-48.878" fill="#FFFFFF" stroke="#231F20" stroke-miterlimit="10" font-family="'Bebas'" font-size="48.4641" rotate="-12.384">T</tspan><tspan x="268.297" y="-53.943" fill="#FFFFFF" stroke="#231F20" stroke-miterlimit="10" font-family="'Bebas'" font-size="48.4641" rotate="-11.182"> </tspan><tspan x="278.095" y="-56.071" fill="#FFFFFF" stroke="#231F20" stroke-miterlimit="10" font-family="'Bebas'" font-size="48.4641" rotate="-9.361">N</tspan><tspan x="309.041" y="-61.219" fill="#FFFFFF" stroke="#231F20" stroke-miterlimit="10" font-family="'Bebas'" font-size="48.4641" rotate="-5.724">A</tspan><tspan x="337.634" y="-64.585" fill="#FFFFFF" stroke="#231F20" stroke-miterlimit="10" font-family="'Bebas'" font-size="48.4641" rotate="0.806">M</tspan><tspan x="375.083" y="-63.812" fill="#FFFFFF" stroke="#231F20" stroke-miterlimit="10" font-family="'Bebas'" font-size="48.4641" rotate="11.941">E</tspan></text>
</g>
</svg>
