<?xml version="1.0" encoding="utf-8"?>
<!-- Generator: Adobe Illustrator 16.0.3, SVG Export Plug-In . SVG Version: 6.00 Build 0)  -->
<!DOCTYPE svg PUBLIC "-//W3C//DTD SVG 1.1//EN" "http://www.w3.org/Graphics/SVG/1.1/DTD/svg11.dtd">
<svg version="1.1" id="Layer_1" xmlns="http://www.w3.org/2000/svg" xmlns:xlink="http://www.w3.org/1999/xlink" x="0px" y="0px"
	 width="640px" height="480px" viewBox="0 0 640 480" enable-background="new 0 0 640 480" xml:space="preserve">
<g id="XMLID_96_">
	<path id="XMLID_40_" fill-rule="evenodd" clip-rule="evenodd" fill="#404041" d="M338.113,119.152
		c-15.522-0.315-24.753,23.857-24.341,43.07c0.623,29.016,12.185,31.59,18.169,42.395c1.175,3.022,0.906,15.713-0.05,31.796
		c1.493-0.427,2.983-0.867,4.469-1.3l3.169-0.923c-0.234-14.969,0.05-26.57,1.281-29.394c6.418-10.552,18.075-12.656,19.875-41.622
		C361.877,143.994,353.635,119.467,338.113,119.152L338.113,119.152z M327.799,287.677c-1.334,14.112-2.633,26.266-3.44,32.685
		c-0.595,4.668,0.701,11.142,5.733,16.059c0.992,1.164,2.166,2.258,3.545,3.246c1.417-0.932,2.635-1.978,3.673-3.1
		c5.228-4.709,6.785-11.125,6.38-15.813c-0.596-7.032-1.498-20.902-2.316-36.697c-1.164,0.315-2.332,0.62-3.5,0.901
		c-2.825,0.681-5.645,1.485-8.443,2.265L327.799,287.677z"/>
	<path id="XMLID_39_" fill-rule="evenodd" clip-rule="evenodd" fill="#404041" d="M293.851,246.973
		c-8.652-23.888-15.726-45.095-15.275-49.202c0.767-8.791,4.147-12.353,6.07-13.721c0.571-0.392,1.73-1.743,1.103-3.128
		c-2.138-5.751-14.308-37.578-19.005-49.864l-2.04,0.688l10.001,40.056c0,0,0.155,0.591-0.305,0.87l-14.471-39.313l-2.07,0.699
		l9.85,39.885c0,0,0.134,0.511-0.22,0.81l-14.3-39.119l-2.093,0.707l9.704,39.734c0,0,0.149,0.566-0.315,0.834l-14.089-38.981
		l-2.155,0.728c3.256,14.093,10.425,45.104,11.78,50.757c0.35,1.403,2.169,2.105,2.738,2.111c1.668,0.045,5.094,0.639,8.909,3.386
		c1.167,0.967,2.35,2.15,3.509,3.606c2.703,3.206,8.785,25.241,15.02,50.261C288.754,248.207,291.306,247.604,293.851,246.973z"/>
	<path id="XMLID_38_" fill-rule="evenodd" clip-rule="evenodd" fill="#404041" d="M321.762,320.161
		c-2.137-5.241-6.173-15.478-10.95-27.896c-4.481,1.146-8.98,2.234-13.498,3.229c2.906,12.706,5.218,23.21,6.355,28.663
		c0.803,3.854,3.267,8.428,7.718,11.6c1.925,1.654,4.329,3.037,7.209,3.908C324.004,333.029,323.785,325.148,321.762,320.161z"/>
	<path id="XMLID_35_" fill-rule="evenodd" clip-rule="evenodd" fill="#404041" d="M419.248,142.178
		c3.222,15.792-5.152,54.318-19.492,78.474c-5.875,0.653-11.715,1.626-17.312,2.706c-0.642,0.124-1.282,0.25-1.923,0.378
		c9.749-39.058,24.694-78.422,26.383-85.291C409.098,129.374,417.31,132.786,419.248,142.178L419.248,142.178z M377.329,274.363
		c-5.524,19.623-10.854,40.662-13.05,50.773c-1.141,5.159-5.338,11.621-13.389,14.008c-0.021-0.006-0.014-0.031-0.033-0.048
		c-0.523,0.21-1.064,0.401-1.6,0.569c-5.28-6.585-4.959-14.275-2.928-19.133c2.421-5.8,8.648-22.084,15.969-42.363
		C367.285,276.818,372.295,275.533,377.329,274.363z"/>
	<g id="XMLID_32_">
		<path id="XMLID_34_" fill-rule="evenodd" clip-rule="evenodd" fill="#404041" d="M248.861,246.689
			c9.027-5.557,20.917-8.716,34.137-7.293c-16.47-7.64-46.533-7.442-55.284-0.641l0.479,2.138c0.458,2.038,1.313,3.883,2.673,5.476
			c5.847,6.848,19.541,7.328,31.773,6.167C258.625,249.949,253.99,247.92,248.861,246.689z"/>
		<path id="XMLID_33_" fill-rule="evenodd" clip-rule="evenodd" fill="#404041" d="M423.775,276.842
			c-9.016,5.558-20.936,8.707-34.158,7.281c16.549,7.663,46.738,7.441,55.383,0.578l-0.521-1.876
			c-0.649-2.343-1.748-4.446-3.383-6.252c-6.598-7.286-20.559-8.145-33.35-7.134C412.24,272.768,417.65,275.368,423.775,276.842z"/>
	</g>
	<path id="XMLID_31_" fill-rule="evenodd" clip-rule="evenodd" fill="#404041" d="M447.132,282.089
		c-9.206-33.168-90.164-4.392-109.863,0.36c-19.304,4.649-102.775,33.023-110.666-0.577c0.206-13.554-0.322-26.867-1.095-40.376
		c6.898,30.758,85.608,2.922,102.619-1.386c19.832-5.03,112.549-37.548,119.005,0.548
		C447.132,254.457,447.132,268.277,447.132,282.089z"/>
	<path id="XMLID_30_" fill-rule="evenodd" clip-rule="evenodd" fill="#FFFFFF" d="M375.457,276.965
		c-5.121,18.333-9.967,37.514-12.01,46.918c-1.053,4.771-4.814,10.693-11.951,13.219c4.967-2.947,7.697-7.689,8.57-11.641
		c2.067-9.518,7.006-29.051,12.195-47.583L375.457,276.965z"/>
	<path id="XMLID_29_" fill-rule="evenodd" clip-rule="evenodd" fill="#FFFFFF" d="M417.698,144.432
		c2.356,15.556-7.103,51.52-19.187,75.892c-0.883,0.098-1.857,0.136-2.738,0.248c12.617-26.921,31.113-85.301,13.223-83.814
		C412.127,132.873,416.154,136.952,417.698,144.432z"/>
	<path id="XMLID_28_" fill-rule="evenodd" clip-rule="evenodd" fill="#FFFFFF" d="M334.666,337.628
		c4.121-2.542,6.988-7.247,7.637-12.124c1.104-8.291-2.072-24.116-2.053-38.975c-0.722,0.292-1.445,0.574-2.17,0.834l0.393-0.144
		c0.303,6.718,2.913,28.065,2.297,37.068C340.146,333.387,336.176,335.643,334.666,337.628z"/>
	<path id="XMLID_27_" fill-rule="evenodd" clip-rule="evenodd" fill="#FFFFFF" d="M336.802,121.486
		c14.151,4.738,18.646,25.207,17.698,42.763c-1.544,28.637-10.617,27.92-16.125,38.352c-1.053,2.782-2.111,16.523-1.914,31.249
		l2.094-0.749c-0.152-13.801,0.467-26.623,1.475-29.284c1.916-7.016,14.288-9.819,17.333-32.941
		C359.232,156.663,355.615,121.034,336.802,121.486z"/>
	<path id="XMLID_26_" fill-rule="evenodd" clip-rule="evenodd" fill="#FFFFFF" d="M284.62,180.757
		c0.139,0.194-1.283,1.168-4.736,6.749c-3.453,5.581-2.485,13.09-1.839,15.173l13.615,43.893c0,0-1.684,0.555-1.684,0.496
		s-14.205-43.318-14.39-48.096c-0.207-5.335,1.124-9.587,2.699-12.772c1.311-2.651,2.792-4.564,3.699-5.749l-16.295-48.125
		l0.656-0.233C268.157,136.946,284.481,180.563,284.62,180.757z"/>
	<path id="XMLID_25_" fill-rule="evenodd" clip-rule="evenodd" fill="#FFFFFF" d="M317.765,337.396
		c3.333-2.814,4.749-7.64,3.895-12.455c-1.236-6.981-7.271-19.063-11.844-31.469l-1.39,0.41c3.66,8.953,9.643,23.082,11.329,29.996
		C321.934,332.813,318.661,335.336,317.765,337.396z"/>
	<path id="XMLID_5_" fill-rule="evenodd" clip-rule="evenodd" fill="none" d="M447.548,314.535
		c-9.206-33.168-90.164-4.393-109.863,0.359c-19.304,4.65-102.775,33.024-110.666-0.576c0.205-13.555-0.322-26.867-1.095-40.377
		c6.898,30.758,85.608,2.922,102.619-1.385c19.832-5.031,112.549-37.548,119.005,0.547
		C447.548,286.903,447.548,300.723,447.548,314.535z"/>
	<text id="XMLID_1_" transform="matrix(0.9997 -0.0229 0.0229 0.9997 249.3916 288.3398)"><tspan x="0" y="0" fill="#F1F1F1" font-family="'Myriad-Roman'" font-size="22.3864">R</tspan><tspan x="13.084" y="-0.141" fill="#F1F1F1" font-family="'Myriad-Roman'" font-size="22.3864" rotate="-6.006">E</tspan><tspan x="24.595" y="-1.392" fill="#F1F1F1" font-family="'Myriad-Roman'" font-size="22.3864" rotate="-9.477">S</tspan><tspan x="35.89" y="-3.299" fill="#F1F1F1" font-family="'Myriad-Roman'" font-size="22.3864" rotate="-11.882">T</tspan><tspan x="46.833" y="-5.594" fill="#F1F1F1" font-family="'Myriad-Roman'" font-size="22.3864" rotate="-13.735">A</tspan><tspan x="60.07" y="-8.847" fill="#F1F1F1" font-family="'Myriad-Roman'" font-size="22.3864" rotate="-14.966">U</tspan><tspan x="73.961" y="-12.653" fill="#F1F1F1" font-family="'Myriad-Roman'" font-size="22.3864" rotate="-13.362">R</tspan><tspan x="85.803" y="-15.568" fill="#F1F1F1" font-family="'Myriad-Roman'" font-size="22.3864" rotate="-14.898">A</tspan><tspan x="98.969" y="-19.096" fill="#F1F1F1" font-family="'Myriad-Roman'" font-size="22.3864" rotate="-13.912">N</tspan><tspan x="113.184" y="-22.604" fill="#F1F1F1" font-family="'Myriad-Roman'" font-size="22.3864" rotate="-12.388">T</tspan><tspan x="123.981" y="-24.943" fill="#F1F1F1" font-family="'Myriad-Roman'" font-size="22.3864" rotate="-11.184"> </tspan><tspan x="128.497" y="-25.926" fill="#F1F1F1" font-family="'Myriad-Roman'" font-size="22.3864" rotate="-9.364">N</tspan><tspan x="142.8" y="-28.304" fill="#F1F1F1" font-family="'Myriad-Roman'" font-size="22.3864" rotate="-5.721">A</tspan><tspan x="156.006" y="-29.859" fill="#F1F1F1" font-family="'Myriad-Roman'" font-size="22.3864" rotate="0.818">M</tspan><tspan x="173.284" y="-29.501" fill="#F1F1F1" font-family="'Myriad-Roman'" font-size="22.3864" rotate="11.949">E</tspan></text>
</g>
</svg>
