<?xml version="1.0" encoding="utf-8"?>
<!-- Generator: Adobe Illustrator 16.0.3, SVG Export Plug-In . SVG Version: 6.00 Build 0)  -->
<!DOCTYPE svg PUBLIC "-//W3C//DTD SVG 1.1//EN" "http://www.w3.org/Graphics/SVG/1.1/DTD/svg11.dtd">
<svg version="1.1" id="Layer_1" xmlns="http://www.w3.org/2000/svg" xmlns:xlink="http://www.w3.org/1999/xlink" x="0px" y="0px"
	 width="512px" height="512px" viewBox="0 0 512 512" enable-background="new 0 0 512 512" xml:space="preserve">
<g id="XMLID_108_">
	<path id="XMLID_226_" fill-rule="evenodd" clip-rule="evenodd" fill="#404041" d="M247.401,310.27
		c-52.059,0-94.26-42.2-94.26-94.26c0-52.058,42.202-94.259,94.26-94.259s94.26,42.202,94.26,94.259
		C341.661,268.069,299.46,310.27,247.401,310.27L247.401,310.27z M352.198,216.01c0-57.877-46.919-104.797-104.797-104.797
		c-57.878,0-104.797,46.919-104.797,104.797c0,57.878,46.918,104.798,104.797,104.798
		C305.279,320.808,352.198,273.888,352.198,216.01z"/>
	<path id="XMLID_221_" fill-rule="evenodd" clip-rule="evenodd" fill="#404041" d="M247.401,383.886
		c-8.379,0-16.613-0.615-24.661-1.803c-3.768,2.272-7.53,4.546-11.293,6.825c11.61,2.402,23.633,3.668,35.954,3.668
		c8.473,0,16.8-0.613,24.953-1.767c-4.076-2.478-8.159-4.944-12.248-7.399C255.914,383.722,251.677,383.886,247.401,383.886
		L247.401,383.886z M173.571,366.813c-22.433-11.005-42.053-26.872-57.487-46.223c-5.415-2.212-10.72-4.57-15.843-7.001
		c15.934,23.979,37.571,43.842,62.974,57.649l8.064-3.444L173.571,366.813L173.571,366.813z M81.812,243.692
		c-1.497-9.005-2.285-18.25-2.285-27.683c0-92.714,75.16-167.875,167.875-167.875s167.875,75.16,167.875,167.875
		c0,3.258-0.093,6.491-0.276,9.701l8.864-3.816c0.063-1.956,0.1-3.917,0.1-5.885c0-97.513-79.05-176.562-176.563-176.562
		S70.839,118.497,70.839,216.01c0,7.665,0.487,15.213,1.435,22.619l1.85,0.977C76.688,240.965,79.25,242.328,81.812,243.692
		L81.812,243.692z M392.071,301.211c-17.867,30.27-44.966,54.441-77.425,68.652c3.37,1.638,6.742,3.27,10.118,4.896
		c31.105-15.184,57.084-39.246,74.645-68.878c-0.237-0.197-0.466-0.401-0.684-0.616
		C396.892,303.469,394.602,302.153,392.071,301.211z"/>
	<path id="XMLID_175_" fill-rule="evenodd" clip-rule="evenodd" fill="#404041" d="M176.274,202.125
		c4.259,16.626,15.146,60.177,15.146,60.177l53.32-0.341l53.321,0.341c0,0,10.888-43.551,15.146-60.177
		c0.095,0.003,0.189,0.007,0.284,0.007c4.085,0,7.396-3.313,7.396-7.398c0-4.083-3.311-7.395-7.396-7.395
		c-4.083,0-7.396,3.313-7.396,7.395c0,2.089,0.865,3.974,2.257,5.318c-5.25,8.838-14.694,24.362-19.786,30.474
		c-18.69,22.425-34.242-23.068-41.645-46.833c3.021-0.931,5.215-3.743,5.215-7.067c0-4.085-3.312-7.397-7.396-7.397
		s-7.396,3.312-7.396,7.397c0,3.325,2.194,6.137,5.214,7.067c-7.403,23.765-22.956,69.258-41.645,46.833
		c-5.092-6.112-14.536-21.636-19.787-30.474c1.392-1.344,2.257-3.229,2.257-5.318c0-4.083-3.311-7.395-7.395-7.395
		c-4.085,0-7.396,3.313-7.396,7.395c0,4.085,3.311,7.398,7.396,7.398C176.084,202.132,176.179,202.128,176.274,202.125z"/>
	<path id="XMLID_174_" fill-rule="evenodd" clip-rule="evenodd" fill="#404041" d="M139.813,427.553
		c37.665-24.019,213.307-131.529,232.145-132.873c18.105-1.703,26.579,3.832,30.066,7.223c1.004,1.011,4.172,2.861,6.749,1.076
		c10.866-6.463,70.887-42.921,94.058-56.995l-2.152-3.879l-77.506,35.109c0,0-1.14,0.531-1.874-0.298l74.344-43.895l-2.183-3.939
		l-77.216,34.739c0,0-0.986,0.463-1.725-0.146l74.016-43.476l-2.209-3.982l-76.963,34.388c0,0-1.092,0.509-1.809-0.33l73.814-43
		l-2.273-4.101c-27.368,11.818-87.582,37.838-98.544,42.678c-2.717,1.229-3.466,5.18-3.266,6.333
		c0.525,3.398,0.591,10.565-3.565,19.315c-1.529,2.725-3.487,5.561-6.013,8.448c-12.046,14.604-201.35,95.589-242.698,112.405
		c-7.515,3.054-15.877,9.744-20.659,19.938c-2.641,4.517-4.555,9.9-5.255,16.064C114.555,436.865,130.453,433.503,139.813,427.553z"
		/>
	<path id="XMLID_166_" fill-rule="evenodd" clip-rule="evenodd" fill="#404041" d="M5.937,237.991
		c20.083,31.986,106.14,87.108,163.109,91.847c1.278,0.259,1.825,0.323,2.968,0.635c24.29,7.202,133.261,74.08,166.882,96.833
		c8.796,5.907,23.828,9.466,38.811,1.789c0.021-0.04-0.023-0.062-0.018-0.116c1.049-0.419,2.099-0.889,3.108-1.387
		c-1.456-16.858-12.565-27.57-22.236-31.805c-19.979-8.768-100.036-47.336-173.068-86.347
		c-70.656-46.063-154.242-85.925-166.817-93.946C2.948,205.378-5.496,219.688,5.937,237.991z"/>
	<circle id="XMLID_6_" fill-rule="evenodd" clip-rule="evenodd" fill="none" cx="247.401" cy="219.434" r="125.226"/>
	<text id="XMLID_218_" transform="matrix(0.5829 -0.8125 0.8125 0.5829 140.1191 154.1323)"><tspan x="0" y="0" fill="#404041" font-family="'Bebas'" font-size="34.8226">R</tspan><tspan x="17.98" y="0.004" fill="#404041" font-family="'Bebas'" font-size="34.8226" rotate="7.809">E</tspan><tspan x="34.231" y="2.183" fill="#404041" font-family="'Bebas'" font-size="34.8226" rotate="15.263">S</tspan><tspan x="50.101" y="6.458" fill="#404041" font-family="'Bebas'" font-size="34.8226" rotate="22.781">T</tspan><tspan x="65.382" y="12.647" fill="#404041" font-family="'Bebas'" font-size="34.8226" rotate="31.244">A</tspan><tspan x="82.89" y="23.118" fill="#404041" font-family="'Bebas'" font-size="34.8226" rotate="40.9">U</tspan><tspan x="99.204" y="37.361" fill="#404041" font-family="'Bebas'" font-size="34.8226" rotate="49.938">R</tspan><tspan x="110.846" y="50.957" fill="#404041" font-family="'Bebas'" font-size="34.8226" rotate="58.572">A</tspan><tspan x="121.613" y="68.291" fill="#404041" font-family="'Bebas'" font-size="34.8226" rotate="68.261">N</tspan><tspan x="129.639" y="88.824" fill="#404041" font-family="'Bebas'" font-size="34.8226" rotate="77.118">T</tspan><tspan x="133.168" y="105.189" fill="#404041" font-family="'Bebas'" font-size="34.8226" rotate="82.532"> </tspan><tspan x="134.529" y="111.839" fill="#404041" font-family="'Bebas'" font-size="34.8226" rotate="89.162">N</tspan><tspan x="134.861" y="133.813" fill="#404041" font-family="'Bebas'" font-size="34.8226" rotate="98.78">A</tspan><tspan x="132.16" y="153.966" fill="#404041" font-family="'Bebas'" font-size="34.8226" rotate="109.508">M</tspan><tspan x="122.77" y="179.32" fill="#404041" font-family="'Bebas'" font-size="34.8226" rotate="119.394">E</tspan></text>
	<polygon id="XMLID_219_" fill-rule="evenodd" clip-rule="evenodd" fill="#404041" points="109.497,197.841 114.56,208.101 
		125.882,209.746 117.689,217.733 119.624,229.009 109.497,223.686 99.37,229.009 101.304,217.733 93.11,209.746 104.433,208.101 	
		"/>
	<polygon id="XMLID_222_" fill-rule="evenodd" clip-rule="evenodd" fill="#404041" points="381.137,192.334 386.2,202.594 
		397.523,204.24 389.33,212.227 391.264,223.502 381.137,218.179 371.01,223.502 372.944,212.227 364.751,204.24 376.074,202.594 	
		"/>
</g>
</svg>
