<?xml version="1.0" encoding="utf-8"?>
<!-- Generator: Adobe Illustrator 16.0.3, SVG Export Plug-In . SVG Version: 6.00 Build 0)  -->
<!DOCTYPE svg PUBLIC "-//W3C//DTD SVG 1.1//EN" "http://www.w3.org/Graphics/SVG/1.1/DTD/svg11.dtd">
<svg version="1.1" id="Layer_1" xmlns="http://www.w3.org/2000/svg" xmlns:xlink="http://www.w3.org/1999/xlink" x="0px" y="0px"
	 width="512px" height="512px" viewBox="0 0 512 512" enable-background="new 0 0 512 512" xml:space="preserve">
<g id="XMLID_99_">
	<g id="XMLID_11_">
		<path id="XMLID_13_" fill-rule="evenodd" clip-rule="evenodd" fill="#404041" d="M271.41,209.881
			c66.014,5.535,117.991,46.193,122.43,96.679H118.159c4.439-50.486,56.417-91.145,122.432-96.679
			c2.124-2.186,4.462-4.308,6.399-5.167c1.914-0.851,1.501-8.193,0.819-9.888c-0.685-1.695-3.687-1.412-4.233-4.096
			s5.325-2.825,6.143-3.389c0.82-0.565,0-1.835,3.141-3.671c1.285-0.752,2.342-1.053,3.141-1.148
			c0.799,0.095,1.856,0.396,3.142,1.148c3.14,1.836,2.321,3.106,3.14,3.671c0.819,0.564,6.69,0.706,6.143,3.389
			c-0.545,2.684-3.549,2.401-4.231,4.096c-0.684,1.694-1.097,9.037,0.82,9.888C266.948,205.574,269.287,207.695,271.41,209.881
			L271.41,209.881z M227.302,217.203c-39.867,3.592-95.032,42.931-99.112,83.363h24.167
			C153.212,256.932,189.766,227.806,227.302,217.203z"/>
		<polygon id="XMLID_12_" fill-rule="evenodd" clip-rule="evenodd" fill="#404041" points="72.918,310.504 256,310.504 
			439.081,310.504 400.277,323.404 395.198,326.725 256,326.725 116.802,326.725 111.724,323.404 		"/>
	</g>
	<polygon id="XMLID_10_" fill-rule="evenodd" clip-rule="evenodd" fill="#404041" points="256,412.439 5.286,412.439 26.494,370.84 
		5.286,332.393 256,332.393 506.714,332.393 485.506,370.84 506.714,412.439 	"/>
	<g id="XMLID_2_">
		<g id="XMLID_88_">
			<path id="XMLID_89_" fill="#404041" d="M217.111,177.875c-1.348,4.128-6.745,9.1-14.605,11.433
				c-7.862,2.293-15.222,1.217-18.479-1.704c0.572-4.18,5.872-10.092,14.272-12.545C206.688,172.57,214.301,174.746,217.111,177.875
				z"/>
		</g>
		<g id="XMLID_80_">
			<path id="XMLID_87_" fill="#404041" d="M136.728,212.806c0,0,0.671-0.511,1.915-1.313c1.245-0.798,3.024-1.937,5.158-3.304
				c2.159-1.327,4.729-2.799,7.472-4.387c2.81-1.47,5.743-3.161,8.806-4.604c6.033-3.071,12.289-5.683,16.978-7.629
				c4.731-1.852,7.907-3.028,7.907-3.028l-0.84-2.296c0,0-3.204,1.187-7.979,3.057c-4.736,1.965-11.052,4.603-17.153,7.708
				c-3.095,1.459-6.065,3.17-8.907,4.658c-2.778,1.607-5.379,3.098-7.566,4.442c-2.164,1.386-3.967,2.541-5.23,3.349
				c-1.258,0.813-1.943,1.333-1.943,1.333L136.728,212.806z"/>
			<g id="XMLID_84_">
				<path id="XMLID_86_" fill="#404041" d="M192.382,214c-0.833-4.325-5.495-11.026-13.413-15.113
					c-7.892-4.056-15.645-3.681-18.564-0.929c1.059,4.271,6.805,10.165,14.614,14.072C182.775,215.838,189.509,216.06,192.382,214z"
					/>
				<path id="XMLID_85_" fill="#404041" d="M173.01,162.173c2.394,3.763,2.603,12.057-0.605,20.6
					c-3.209,8.576-8.293,14.002-12.213,14.751c-2.695-3.349-4.159-11.733-1.011-20.496
					C162.282,168.171,168.769,162.813,173.01,162.173z"/>
			</g>
			<g id="XMLID_81_">
				<path id="XMLID_83_" fill="#404041" d="M145.778,174.055c2.807,3.454,3.857,11.696,1.619,20.583
					c-1.125,4.436-2.744,8.225-4.604,10.947c-1.796,2.834-3.836,4.632-5.753,5.228l-0.004,0.003
					c-3.15-3.013-5.668-10.941-3.589-20.238c1.069-4.537,3.076-8.475,5.372-11.305C141.126,176.483,143.653,174.567,145.778,174.055
					z"/>
				<path id="XMLID_82_" fill="#404041" d="M170.718,223.443c-1.327-4.21-6.642-10.401-14.933-13.561
					c-4.144-1.587-8.092-1.984-11.396-1.693c-3.233,0.399-5.795,1.505-7.08,3.021l-0.003,0.003c1.58,4.037,8.224,9.238,16.246,12.1
					c4.087,1.503,7.679,2.058,10.643,2.023C167.19,225.335,169.401,224.558,170.718,223.443z"/>
			</g>
		</g>
		<g id="XMLID_70_">
			<path id="XMLID_79_" fill="#404041" d="M100.357,250.339c0,0,0.409-0.732,1.126-2.013c0.814-1.225,1.977-2.973,3.37-5.073
				c1.42-2.082,3.316-4.343,5.241-6.838c1.054-1.174,2.143-2.387,3.251-3.619c0.555-0.616,1.115-1.236,1.676-1.858l1.804-1.765
				c1.207-1.176,2.414-2.352,3.601-3.51c1.252-1.089,2.484-2.162,3.677-3.2c2.334-2.136,4.769-3.826,6.732-5.422
				c1.991-1.563,3.775-2.705,4.964-3.58c1.207-0.853,1.897-1.339,1.897-1.339l-1.368-2.025c0,0-0.702,0.493-1.926,1.357
				c-1.209,0.888-3.016,2.046-5.04,3.636c-1.999,1.623-4.47,3.338-6.848,5.514c-1.214,1.057-2.469,2.149-3.745,3.259
				c-1.21,1.181-2.442,2.381-3.671,3.58l-1.841,1.801c-0.575,0.636-1.146,1.269-1.713,1.897c-1.132,1.26-2.247,2.5-3.325,3.7
				c-1.972,2.554-3.91,4.87-5.367,7.004c-1.43,2.154-2.623,3.949-3.458,5.206c-0.739,1.316-1.16,2.069-1.16,2.069L100.357,250.339z"
				/>
			<g id="XMLID_76_">
				<path id="XMLID_78_" fill="#404041" d="M151.168,234.992c-1.893-3.931-7.973-9.474-16.554-11.398
					c-2.134-0.467-4.212-0.673-6.165-0.666c-1.941,0.018-3.682,0.335-5.273,0.762c-3.202,0.832-5.466,2.456-6.431,4.206
					c1.153,1.843,3.601,3.729,6.772,5.34c3.157,1.597,7.028,2.951,11.225,3.829c2.086,0.429,3.958,0.631,5.724,0.72
					c1.79,0.105,3.39,0.039,4.783-0.172C147.979,237.153,150.164,236.301,151.168,234.992z"/>
				<path id="XMLID_77_" fill="#404041" d="M119.648,189.521c3.31,3.055,5.33,11.061,4.387,20.259
					c-0.228,2.312-0.616,4.442-1.126,6.359c-0.503,1.93-1.058,3.739-1.743,5.251c-1.391,3.002-3.002,5.202-4.758,6.163
					c-1.825-1.188-3.724-3.61-5.111-6.968c-1.398-3.372-2.25-7.69-1.858-12.428C110.112,198.477,115.507,191.283,119.648,189.521z"
					/>
			</g>
			<g id="XMLID_73_">
				<path id="XMLID_75_" fill="#404041" d="M95.175,209.972c1.92,1.162,3.744,3.656,5.146,6.985
					c1.447,3.396,2.524,7.657,2.929,12.252c0.446,4.643,0.174,8.8-0.492,12.039c-0.504,3.363-1.545,5.767-3.272,7.152v0.003
					c-1.728-0.672-4.406-2.557-6.558-5.481c-2.12-2.899-3.84-6.88-4.572-11.824c-0.632-4.815,0.058-9.521,1.42-13.253
					C91.2,214.211,93.18,211.257,95.175,209.972z"/>
				<path id="XMLID_74_" fill="#404041" d="M134.714,248.675c-1.327-1.745-3.701-3.701-6.87-5.299
					c-3.1-1.556-6.971-2.708-11.382-2.844c-4.35-0.108-8.5,0.954-11.421,2.489c-2.755,1.648-5.554,3.683-5.554,5.626v0.004
					c1.727,1.506,4.758,2.672,8.228,3.474c3.501,0.817,7.809,1.273,11.855,1.226c2.029-0.021,4.094-0.103,5.741-0.339
					c1.704-0.212,3.075-0.598,4.421-0.976C132.363,251.259,133.939,250.005,134.714,248.675z"/>
			</g>
		</g>
		<g id="XMLID_58_">
			<path id="XMLID_69_" fill="#404041" d="M89.861,300.873c0,0-0.076-0.844-0.15-2.309c-0.084-1.469-0.204-3.564-0.348-6.08
				c0.003-2.514,0.183-5.448,0.28-8.592c0.212-1.558,0.43-3.168,0.653-4.804c0.207-1.638,0.417-3.302,0.865-4.923
				c0.385-1.631,0.769-3.264,1.146-4.869c0.425-1.594,1.022-3.11,1.501-4.605c0.896-3.022,2.217-5.654,3.215-7.963
				c0.938-2.341,2.128-4.092,2.788-5.402c0.708-1.287,1.115-2.021,1.115-2.021l-2.103-1.248c0,0-0.417,0.755-1.147,2.077
				c-0.68,1.348-1.897,3.147-2.865,5.557c-1.031,2.376-2.385,5.088-3.313,8.201c-0.496,1.54-1.106,3.104-1.545,4.747
				c-0.392,1.655-0.788,3.337-1.184,5.02c-0.458,1.671-0.678,3.385-0.892,5.073c-0.228,1.685-0.452,3.344-0.67,4.949
				c-0.106,3.232-0.286,6.256-0.29,8.84c0.148,2.582,0.27,4.734,0.356,6.244c0.079,1.508,0.155,2.359,0.155,2.359L89.861,300.873z"
				/>
			<g id="XMLID_63_">
				<path id="XMLID_65_" fill="#404041" d="M123.034,263.998c-1.762-1.314-4.527-2.629-7.939-3.389
					c-3.407-0.756-7.568-0.986-11.646,0.111c-2.069,0.533-4.007,1.296-5.703,2.225c-1.586,0.97-2.97,2.09-4.112,3.262
					c-2.4,2.313-3.297,4.965-3.227,6.936c1.967,0.922,5.053,1.16,8.587,0.855c3.563-0.297,7.389-1.152,11.429-2.251
					c1.97-0.563,3.675-1.169,5.112-1.806c1.533-0.609,2.873-1.229,3.908-1.887C121.435,266.719,122.811,265.374,123.034,263.998z"/>
				<path id="XMLID_64_" fill="#404041" d="M74.833,236.833c2.162,0.588,4.556,2.573,6.773,5.5c2.225,2.929,4.205,6.738,6,11.195
					c0.863,2.209,1.498,4.293,1.972,6.24c0.583,1.994,0.966,3.834,1.15,5.495c0.257,3.288,0.235,6.028-0.789,7.775
					c-2.181-0.009-5.094-0.993-8.054-3.12c-2.926-2.117-6.085-5.467-8.017-9.99c-1.01-2.272-1.712-4.634-2.145-6.966
					c-0.344-2.286-0.355-4.507-0.192-6.596C71.789,242.132,73.239,238.801,74.833,236.833z"/>
			</g>
			<g id="XMLID_59_">
				<path id="XMLID_62_" fill="#404041" d="M62.49,270.058c2.284-0.132,5.082,0.995,8.158,3.095c3.085,2.1,6.354,5.137,9.273,8.753
					c3.004,3.624,5.826,7.083,7.079,10.106c1.582,3.02,2.123,5.65,2.123,7.627v0.002c-5.181,1.313-12.691-0.15-19.799-7.332
					c-3.235-3.621-5.736-7.965-6.729-12.021C61.738,276.225,61.547,272.469,62.49,270.058z"/>
				<path id="XMLID_61_" fill="#404041" d="M116.809,280.574c-2.046-0.669-5.175-1.077-8.602-0.727
					c-3.417,0.352-7.248,1.457-10.97,3.781c-3.633,2.328-5.85,5.408-7.421,8.354c-1.245,2.953-0.692,5.756-0.692,7.611v0.004
					c3.455,0.561,11.952-2.912,18.376-7.697c3.508-2.352,5.739-4.564,7.317-6.467C116.532,283.568,116.999,281.891,116.809,280.574z
					"/>
			</g>
		</g>
	</g>
	<g id="XMLID_4_">
		<g id="XMLID_54_">
			<path id="XMLID_55_" fill="#404041" d="M296.459,177.875c1.349,4.128,6.745,9.1,14.604,11.433
				c7.865,2.293,15.224,1.217,18.479-1.704c-0.571-4.18-5.872-10.092-14.273-12.545C306.882,172.57,299.27,174.746,296.459,177.875z
				"/>
		</g>
		<g id="XMLID_46_">
			<path id="XMLID_53_" fill="#404041" d="M376.844,212.806c0,0-0.673-0.511-1.916-1.313c-1.245-0.798-3.022-1.937-5.157-3.304
				c-2.158-1.327-4.728-2.799-7.472-4.387c-2.811-1.47-5.743-3.161-8.806-4.604c-6.033-3.071-12.289-5.683-16.978-7.629
				c-4.731-1.852-7.905-3.028-7.905-3.028l0.838-2.296c0,0,3.204,1.187,7.98,3.057c4.735,1.965,11.052,4.603,17.152,7.708
				c3.096,1.459,6.065,3.17,8.907,4.658c2.777,1.607,5.378,3.098,7.565,4.442c2.164,1.386,3.969,2.541,5.23,3.349
				c1.258,0.813,1.942,1.333,1.942,1.333L376.844,212.806z"/>
			<g id="XMLID_50_">
				<path id="XMLID_52_" fill="#404041" d="M321.188,214c0.834-4.325,5.495-11.026,13.412-15.113
					c7.892-4.056,15.646-3.681,18.565-0.929c-1.06,4.271-6.807,10.165-14.615,14.072C330.796,215.838,324.062,216.06,321.188,214z"
					/>
				<path id="XMLID_51_" fill="#404041" d="M340.56,162.173c-2.394,3.763-2.603,12.057,0.605,20.6
					c3.209,8.576,8.294,14.002,12.213,14.751c2.695-3.349,4.159-11.733,1.012-20.496
					C351.288,168.171,344.802,162.813,340.56,162.173z"/>
			</g>
			<g id="XMLID_47_">
				<path id="XMLID_49_" fill="#404041" d="M367.793,174.055c-2.807,3.454-3.858,11.696-1.62,20.583
					c1.125,4.436,2.744,8.225,4.604,10.947c1.796,2.834,3.836,4.632,5.754,5.228l0.003,0.003c3.15-3.013,5.67-10.941,3.59-20.238
					c-1.069-4.537-3.076-8.475-5.373-11.305C372.443,176.483,369.917,174.567,367.793,174.055z"/>
				<path id="XMLID_48_" fill="#404041" d="M342.852,223.443c1.328-4.21,6.644-10.401,14.934-13.561
					c4.144-1.587,8.093-1.984,11.396-1.693c3.232,0.399,5.795,1.505,7.08,3.021l0.004,0.003c-1.581,4.037-8.225,9.238-16.246,12.1
					c-4.087,1.503-7.68,2.058-10.643,2.023C346.38,225.335,344.169,224.558,342.852,223.443z"/>
			</g>
		</g>
		<g id="XMLID_20_">
			<path id="XMLID_45_" fill="#404041" d="M413.215,250.339c0,0-0.412-0.732-1.128-2.013c-0.813-1.225-1.975-2.973-3.37-5.073
				c-1.421-2.082-3.316-4.343-5.24-6.838c-1.055-1.174-2.145-2.387-3.253-3.619c-0.555-0.616-1.113-1.236-1.676-1.858l-1.803-1.765
				c-1.208-1.176-2.414-2.352-3.602-3.51c-1.251-1.089-2.484-2.162-3.676-3.2c-2.335-2.136-4.771-3.826-6.733-5.422
				c-1.99-1.563-3.774-2.705-4.964-3.58c-1.208-0.853-1.898-1.339-1.898-1.339l1.368-2.025c0,0,0.702,0.493,1.929,1.357
				c1.207,0.888,3.015,2.046,5.039,3.636c1.997,1.623,4.468,3.338,6.848,5.514c1.213,1.057,2.468,2.149,3.743,3.259
				c1.211,1.181,2.441,2.381,3.674,3.58l1.838,1.801c0.575,0.636,1.146,1.269,1.713,1.897c1.133,1.26,2.248,2.5,3.325,3.7
				c1.974,2.554,3.909,4.87,5.366,7.004c1.431,2.154,2.623,3.949,3.458,5.206c0.739,1.316,1.16,2.069,1.16,2.069L413.215,250.339z"
				/>
			<g id="XMLID_24_">
				<path id="XMLID_44_" fill="#404041" d="M362.401,234.992c1.895-3.931,7.974-9.474,16.555-11.398
					c2.136-0.467,4.211-0.673,6.165-0.666c1.941,0.018,3.682,0.335,5.271,0.762c3.203,0.832,5.467,2.456,6.432,4.206
					c-1.153,1.843-3.602,3.729-6.771,5.34c-3.158,1.597-7.028,2.951-11.225,3.829c-2.087,0.429-3.959,0.631-5.725,0.72
					c-1.789,0.105-3.391,0.039-4.783-0.172C365.592,237.153,363.407,236.301,362.401,234.992z"/>
				<path id="XMLID_43_" fill="#404041" d="M393.922,189.521c-3.31,3.055-5.329,11.061-4.387,20.259
					c0.228,2.312,0.614,4.442,1.128,6.359c0.503,1.93,1.057,3.739,1.741,5.251c1.391,3.002,3.002,5.202,4.757,6.163
					c1.825-1.188,3.725-3.61,5.11-6.968c1.398-3.372,2.251-7.69,1.859-12.428C403.458,198.477,398.064,191.283,393.922,189.521z"/>
			</g>
			<g id="XMLID_21_">
				<path id="XMLID_23_" fill="#404041" d="M418.395,209.972c-1.919,1.162-3.742,3.656-5.146,6.985
					c-1.447,3.396-2.525,7.657-2.931,12.252c-0.442,4.643-1.168,8.8-0.501,12.039c0.505,3.363,0.551,5.767,2.277,7.152v0.003
					c3.455-0.672,5.399-2.557,7.551-5.481c2.121-2.899,4.339-6.88,5.072-11.824c0.632-4.815,0.188-9.521-1.172-13.253
					C422.122,214.211,420.39,211.257,418.395,209.972z"/>
				<path id="XMLID_22_" fill="#404041" d="M378.858,248.675c1.325-1.745,3.699-3.701,6.868-5.299
					c3.102-1.556,6.97-2.708,11.381-2.844c4.35-0.108,7.506,0.954,10.427,2.489c2.756,1.648,4.561,3.683,4.561,5.626v0.004
					c-1.727,1.506-3.763,2.672-7.232,3.474c-3.503,0.817-7.312,1.273-11.358,1.226c-2.03-0.021-3.844-0.103-5.493-0.339
					c-1.703-0.212-2.95-0.598-4.295-0.976C381.084,251.259,379.63,250.005,378.858,248.675z"/>
			</g>
		</g>
		<g id="XMLID_5_">
			<path id="XMLID_19_" fill="#404041" d="M423.709,300.873c0,0,0.076-0.844,0.15-2.309c0.084-1.469,0.204-3.564,0.347-6.08
				c-0.002-2.514-0.182-5.448-0.279-8.592c-0.213-1.558-0.43-3.168-0.652-4.804c-0.208-1.638-0.417-3.302-0.865-4.923
				c-0.385-1.631-0.77-3.264-1.147-4.869c-0.425-1.594-1.022-3.11-1.501-4.605c-0.895-3.022-2.216-5.654-3.214-7.963
				c-0.938-2.341-2.129-4.092-2.789-5.402c-0.708-1.287-1.114-2.021-1.114-2.021l2.104-1.248c0,0,0.416,0.755,1.146,2.077
				c0.68,1.348,1.898,3.147,2.868,5.557c1.029,2.376,2.383,5.088,3.311,8.201c0.496,1.54,1.107,3.104,1.547,4.747
				c0.39,1.655,0.786,3.337,1.182,5.02c0.459,1.671,0.679,3.385,0.893,5.073c0.228,1.685,0.452,3.344,0.67,4.949
				c0.106,3.232,0.287,6.256,0.291,8.84c-0.147,2.582-0.271,4.734-0.356,6.244c-0.079,1.508-0.155,2.359-0.155,2.359
				L423.709,300.873z"/>
			<g id="XMLID_9_">
				<path id="XMLID_18_" fill="#404041" d="M390.537,263.998c1.762-1.314,4.525-2.629,7.94-3.389
					c3.404-0.756,7.566-0.986,11.644,0.111c2.071,0.533,4.009,1.296,5.704,2.225c1.584,0.97,2.969,2.09,4.111,3.262
					c2.4,2.313,3.297,4.965,3.227,6.936c-1.965,0.922-5.054,1.16-8.587,0.855c-3.563-0.297-7.389-1.152-11.429-2.251
					c-1.97-0.563-3.675-1.169-5.112-1.806c-1.533-0.609-2.872-1.229-3.908-1.887C392.137,266.719,390.761,265.374,390.537,263.998z"
					/>
				<path id="XMLID_17_" fill="#404041" d="M438.737,236.833c-2.162,0.588-4.556,2.573-6.773,5.5
					c-2.225,2.929-4.204,6.738-5.999,11.195c-0.864,2.209-1.499,4.293-1.972,6.24c-0.585,1.994-0.965,3.834-1.151,5.495
					c-0.256,3.288-0.233,6.028,0.79,7.775c2.181-0.009,5.094-0.993,8.054-3.12c2.926-2.117,6.085-5.467,8.016-9.99
					c1.013-2.272,1.713-4.634,2.146-6.966c0.344-2.286,0.354-4.507,0.192-6.596C441.781,242.132,440.331,238.801,438.737,236.833z"
					/>
			</g>
			<g id="XMLID_6_">
				<path id="XMLID_8_" fill="#404041" d="M451.08,270.058c-2.283-0.132-5.08,0.995-8.156,3.095c-3.087,2.1-6.355,5.137-9.275,8.753
					c-3.004,3.624-5.956,7.083-7.21,10.106c-1.582,3.02-2.253,5.65-2.253,7.627v0.002c3.454,1.313,12.822-0.15,19.929-7.332
					c3.235-3.621,5.802-7.965,6.796-12.021C451.768,276.225,452.024,272.469,451.08,270.058z"/>
				<path id="XMLID_7_" fill="#404041" d="M396.762,280.574c2.046-0.669,5.176-1.077,8.603-0.727
					c3.417,0.352,7.247,1.457,10.971,3.781c3.633,2.328,5.718,5.408,7.288,8.354c1.246,2.953,0.563,5.756,0.563,7.611v0.004
					c-5.182,0.561-11.823-2.912-18.247-7.697c-3.506-2.352-5.673-4.564-7.249-6.467
					C396.973,283.568,396.571,281.891,396.762,280.574z"/>
			</g>
		</g>
	</g>
	<g id="XMLID_3_">
		<text transform="matrix(1 0 0 1 87.2061 387.25)" fill="#F1F1F1" font-family="'spinweradBold'" font-size="54.7408">RESTAURANT</text>
	</g>
</g>
</svg>
